<svg xmlns="http://www.w3.org/2000/svg" xmlns:xlink="http://www.w3.org/1999/xlink" x="0" y="0" width="701.6000366210938" height="301.6000061035156" style="
        width:701.6000366210938px;
        height:301.6000061035156px;
        background: transparent;
        fill: none;
">
        
        
        <svg xmlns="http://www.w3.org/2000/svg" class="role-diagram-draw-area" style="overflow: visible;"><g class="shapes-region" style="stroke: black; fill: none;"><g class="composite-shape"><path class="real" d=" M191,198 L261,198 L261,238 L191,238 Z" style="stroke-width: 1; stroke: none; fill: rgb(42, 31, 88); fill-opacity: 1; stroke-opacity: 1;"/></g><g class="composite-shape axis2d" style="stroke-width: 1; stroke: rgb(0, 0, 0);"><path class="real" d=" M67,238.2 L530.4,238.2 M113.34,27.6 L113.34,261.6"/><path d=" M523.4,233.2 L530.4,238.2 L523.4,243.2"/><path d=" M108.34,34.6 L113.34,27.6 L118.34,34.6"/><path d=" M225.34,233.2 L225.34,243.2 M337.34,233.2 L337.34,243.2 M449.34,233.2 L449.34,243.2 M108.34,126.2 L118.34,126.2"/><g style="fill: rgb(0, 0, 0); fill-opacity: 1; font-size: 11px; font-weight: normal; text-anchor: end; stroke: none; font-family: Times;"><text x="228.33999633789062" y="253.19999084472659">1</text><text x="340.3399963378906" y="253.19999084472659">2</text><text x="452.3399963378906" y="253.19999084472659">3</text><text x="106.33999633789062" y="129.19999084472659">1</text></g></g><g class="composite-shape"><path class="real" d=" M191,179.5 L261,179.5 L261,198 L191,198 Z" style="stroke-width: 1; stroke: none; stroke-opacity: 1; fill: rgb(74, 144, 226); fill-opacity: 1;"/></g><g class="composite-shape"><path class="real" d=" M303,198 L373,198 L373,238 L303,238 Z" style="stroke-width: 1; stroke: none; stroke-opacity: 1; fill: rgb(42, 31, 88); fill-opacity: 1;"/></g><g class="composite-shape"><path class="real" d=" M414,198 L484,198 L484,238 L414,238 Z" style="stroke-width: 1; stroke: none; stroke-opacity: 1; fill: rgb(42, 31, 88); fill-opacity: 1;"/></g><g class="composite-shape"><path class="real" d=" M191,76.5 L261,76.5 L261,179.5 L191,179.5 Z" style="stroke-width: 1; stroke: none; stroke-opacity: 1; fill: rgb(255, 221, 0); fill-opacity: 1;"/></g><g class="composite-shape"><path class="real" d=" M414,190.5 L484,190.5 L484,198 L414,198 Z" style="stroke-width: 1; stroke: none; stroke-opacity: 1; fill: rgb(74, 144, 226); fill-opacity: 1;"/></g><g class="composite-shape"><path class="real" d=" M414,155.5 L484,155.5 L484,190.5 L414,190.5 Z" style="stroke-width: 1; stroke: none; stroke-opacity: 1; fill: rgb(255, 221, 0); fill-opacity: 1;"/></g><g class="composite-shape"><path class="real" d=" M414,148 L484,148 L484,155.5 L414,155.5 Z" style="stroke-width: 1; stroke: none; stroke-opacity: 1; fill: rgb(74, 144, 226); fill-opacity: 1;"/></g><g class="composite-shape"><path class="real" d=" M414,113 L484,113 L484,148 L414,148 Z" style="stroke-width: 1; stroke: none; stroke-opacity: 1; fill: rgb(255, 221, 0); fill-opacity: 1;"/></g><g class="composite-shape"><path class="real" d=" M414,105.5 L484,105.5 L484,113 L414,113 Z" style="stroke-width: 1; stroke: none; stroke-opacity: 1; fill: rgb(74, 144, 226); fill-opacity: 1;"/></g><g class="composite-shape"><path class="real" d=" M414,70.5 L484,70.5 L484,105.5 L414,105.5 Z" style="stroke-width: 1; stroke: none; stroke-opacity: 1; fill: rgb(255, 221, 0); fill-opacity: 1;"/></g><g class="arrow-line"><path class="connection real" stroke-dasharray="" d="  M504,105.5 L486,105.5" style="stroke: rgb(0, 0, 0); stroke-width: 1; fill: none; fill-opacity: 1;"/><g stroke="#000" transform="matrix(1,-2.4492935982947064e-16,2.4492935982947064e-16,1,484,105.5)" style="stroke: rgb(0, 0, 0); stroke-width: 1;"><path d=" M10.93,-3.29 Q4.96,-0.45 0,0 Q4.96,0.45 10.93,3.29"/></g></g><g class="arrow-line"><path class="connection real" stroke-dasharray="" d="  M504,148 L486,148" style="stroke: rgb(0, 0, 0); stroke-width: 1; fill: none; fill-opacity: 1;"/><g stroke="#000" transform="matrix(1,-2.4492935982947064e-16,2.4492935982947064e-16,1,484,148)" style="stroke: rgb(0, 0, 0); stroke-width: 1;"><path d=" M10.93,-3.29 Q4.96,-0.45 0,0 Q4.96,0.45 10.93,3.29"/></g></g><g class="arrow-line"><path class="connection real" stroke-dasharray="" d="  M504,190.5 L486,190.5" style="stroke: rgb(0, 0, 0); stroke-width: 1; fill: none; fill-opacity: 1;"/><g stroke="#000" transform="matrix(1,-2.4492935982947064e-16,2.4492935982947064e-16,1,484,190.5)" style="stroke: rgb(0, 0, 0); stroke-width: 1;"><path d=" M10.93,-3.29 Q4.96,-0.45 0,0 Q4.96,0.45 10.93,3.29"/></g></g><g class="arrow-line"><path class="connection real" stroke-dasharray="" d="  M281,179.5 L263,179.5" style="stroke: rgb(0, 0, 0); stroke-width: 1; fill: none; fill-opacity: 1;"/><g stroke="#000" transform="matrix(1,-2.4492935982947064e-16,2.4492935982947064e-16,1,261,179.5)" style="stroke: rgb(0, 0, 0); stroke-width: 1;"><path d=" M10.93,-3.29 Q4.96,-0.45 0,0 Q4.96,0.45 10.93,3.29"/></g></g><g/></g><g/><g/><g/></svg>
        <svg xmlns="http://www.w3.org/2000/svg" xmlns:xlink="http://www.w3.org/1999/xlink" width="700" height="300" style="width:700px;height:300px;font-family:Asana-Math, Asana;background:transparent;"><g><g><g><text x="175.59375" y="37.80000305175781" style="white-space:pre;stroke:none;fill:rgb(0,0,0);fill-opacity:1;font-size:12px;font-family:Arial, Helvetica, sans-serif;font-weight:400;font-style:normal;dominant-baseline:text-before-edge;text-decoration:none solid rgb(0, 0, 0);">Gasto en una sola </text></g></g><g><g><text x="197.60626220703125" y="54.600006103515625" style="white-space:pre;stroke:none;fill:rgb(0,0,0);fill-opacity:1;font-size:12px;font-family:Arial, Helvetica, sans-serif;font-weight:400;font-style:normal;dominant-baseline:text-before-edge;text-decoration:none solid rgb(0, 0, 0);">exposición</text></g></g></g><g><g><g><text x="404.92498779296875" y="34.80000305175781" style="white-space:pre;stroke:none;fill:rgb(0,0,0);fill-opacity:1;font-size:12px;font-family:Arial, Helvetica, sans-serif;font-weight:400;font-style:normal;dominant-baseline:text-before-edge;text-decoration:none solid rgb(0, 0, 0);">Gasto en varias </text></g></g><g><g><text x="413.92498779296875" y="51.600006103515625" style="white-space:pre;stroke:none;fill:rgb(0,0,0);fill-opacity:1;font-size:12px;font-family:Arial, Helvetica, sans-serif;font-weight:400;font-style:normal;dominant-baseline:text-before-edge;text-decoration:none solid rgb(0, 0, 0);">exposiciones</text></g></g></g><g><g><g><text x="282.79998779296875" y="162.39999389648438" style="white-space:pre;stroke:none;fill:rgb(0,0,0);fill-opacity:1;font-size:12px;font-family:Arial, Helvetica, sans-serif;font-weight:400;font-style:normal;dominant-baseline:text-before-edge;text-decoration:none solid rgb(0, 0, 0);">El gasto no rebasa el </text></g></g><g><g><text x="315.1500244140625" y="179.20001220703125" style="white-space:pre;stroke:none;fill:rgb(0,0,0);fill-opacity:1;font-size:12px;font-family:Arial, Helvetica, sans-serif;font-weight:400;font-style:normal;dominant-baseline:text-before-edge;text-decoration:none solid rgb(0, 0, 0);">deducible</text></g></g></g></svg>
</svg>
