<svg xmlns="http://www.w3.org/2000/svg" xmlns:xlink="http://www.w3.org/1999/xlink" x="0" y="0" width="661.6000366210938" height="301.6000061035156" style="
        width:661.6000366210938px;
        height:301.6000061035156px;
        background: transparent;
        fill: none;
">
        
        
        <svg xmlns="http://www.w3.org/2000/svg" class="role-diagram-draw-area"><g class="shapes-region" style="stroke: black; fill: none;"><g class="composite-shape" data-amt="diagram/shapes/plot" transform="matrix(1,0,0,1,102,47)"><g><g><g class="test-xgi"><line x1="31.92538987878074" y1="0" x2="31.92538987878074" y2="200" fill="none" stroke="#c3c3c3" stroke-width="0.5"/><line x1="119.45299230003207" y1="0" x2="119.45299230003207" y2="200" fill="none" stroke="#c3c3c3" stroke-width="0.5"/><line x1="206.98059472128338" y1="0" x2="206.98059472128338" y2="200" fill="none" stroke="#c3c3c3" stroke-width="0.5"/><line x1="294.50819714253475" y1="0" x2="294.50819714253475" y2="200" fill="none" stroke="#c3c3c3" stroke-width="0.5"/><line x1="382.035799563786" y1="0" x2="382.035799563786" y2="200" fill="none" stroke="#c3c3c3" stroke-width="0.5"/></g><g class="test-ygi"><line x1="0" y1="177.36399039839753" x2="430" y2="177.36399039839753" fill="none" stroke="#c3c3c3" stroke-width="0.5"/><line x1="0" y1="89.83638797714622" x2="430" y2="89.83638797714622" fill="none" stroke="#c3c3c3" stroke-width="0.5"/><line x1="0" y1="2.3087855558949" x2="430" y2="2.3087855558949" fill="none" stroke="#c3c3c3" stroke-width="0.5"/></g></g><g><g class="test-xti" style="font-family: Asana-Math, Asana;"><line x1="0" y1="177.36399039839753" x2="426" y2="177.36399039839753" fill="none" stroke="rgb(50,50,50)" stroke-opacity="1" stroke-width="1"/><line x1="31.92538987878074" y1="175.36399039839753" x2="31.92538987878074" y2="179.36399039839753" fill="none" stroke="rgb(50,50,50)" stroke-opacity="1" stroke-width="1"/><line x1="40.67815012090588" y1="175.36399039839753" x2="40.67815012090588" y2="179.36399039839753" fill="none" stroke="rgb(50,50,50)" stroke-opacity="1" stroke-width="1"/><line x1="49.430910363031025" y1="175.36399039839753" x2="49.430910363031025" y2="179.36399039839753" fill="none" stroke="rgb(50,50,50)" stroke-opacity="1" stroke-width="1"/><line x1="58.183670605156166" y1="175.36399039839753" x2="58.183670605156166" y2="179.36399039839753" fill="none" stroke="rgb(50,50,50)" stroke-opacity="1" stroke-width="1"/><line x1="66.9364308472813" y1="175.36399039839753" x2="66.9364308472813" y2="179.36399039839753" fill="none" stroke="rgb(50,50,50)" stroke-opacity="1" stroke-width="1"/><line x1="75.68919108940645" y1="175.36399039839753" x2="75.68919108940645" y2="179.36399039839753" fill="none" stroke="rgb(50,50,50)" stroke-opacity="1" stroke-width="1"/><line x1="84.44195133153158" y1="175.36399039839753" x2="84.44195133153158" y2="179.36399039839753" fill="none" stroke="rgb(50,50,50)" stroke-opacity="1" stroke-width="1"/><line x1="93.19471157365673" y1="175.36399039839753" x2="93.19471157365673" y2="179.36399039839753" fill="none" stroke="rgb(50,50,50)" stroke-opacity="1" stroke-width="1"/><line x1="101.94747181578187" y1="175.36399039839753" x2="101.94747181578187" y2="179.36399039839753" fill="none" stroke="rgb(50,50,50)" stroke-opacity="1" stroke-width="1"/><line x1="110.700232057907" y1="175.36399039839753" x2="110.700232057907" y2="179.36399039839753" fill="none" stroke="rgb(50,50,50)" stroke-opacity="1" stroke-width="1"/><line x1="119.45299230003215" y1="175.36399039839753" x2="119.45299230003215" y2="179.36399039839753" fill="none" stroke="rgb(50,50,50)" stroke-opacity="1" stroke-width="1"/><line x1="128.20575254215726" y1="175.36399039839753" x2="128.20575254215726" y2="179.36399039839753" fill="none" stroke="rgb(50,50,50)" stroke-opacity="1" stroke-width="1"/><line x1="136.95851278428236" y1="175.36399039839753" x2="136.95851278428236" y2="179.36399039839753" fill="none" stroke="rgb(50,50,50)" stroke-opacity="1" stroke-width="1"/><line x1="145.71127302640753" y1="175.36399039839753" x2="145.71127302640753" y2="179.36399039839753" fill="none" stroke="rgb(50,50,50)" stroke-opacity="1" stroke-width="1"/><line x1="154.46403326853266" y1="175.36399039839753" x2="154.46403326853266" y2="179.36399039839753" fill="none" stroke="rgb(50,50,50)" stroke-opacity="1" stroke-width="1"/><line x1="163.2167935106578" y1="175.36399039839753" x2="163.2167935106578" y2="179.36399039839753" fill="none" stroke="rgb(50,50,50)" stroke-opacity="1" stroke-width="1"/><line x1="171.9695537527829" y1="175.36399039839753" x2="171.9695537527829" y2="179.36399039839753" fill="none" stroke="rgb(50,50,50)" stroke-opacity="1" stroke-width="1"/><line x1="180.72231399490803" y1="175.36399039839753" x2="180.72231399490803" y2="179.36399039839753" fill="none" stroke="rgb(50,50,50)" stroke-opacity="1" stroke-width="1"/><line x1="189.4750742370332" y1="175.36399039839753" x2="189.4750742370332" y2="179.36399039839753" fill="none" stroke="rgb(50,50,50)" stroke-opacity="1" stroke-width="1"/><line x1="198.22783447915833" y1="175.36399039839753" x2="198.22783447915833" y2="179.36399039839753" fill="none" stroke="rgb(50,50,50)" stroke-opacity="1" stroke-width="1"/><line x1="206.98059472128344" y1="175.36399039839753" x2="206.98059472128344" y2="179.36399039839753" fill="none" stroke="rgb(50,50,50)" stroke-opacity="1" stroke-width="1"/><line x1="215.73335496340857" y1="175.36399039839753" x2="215.73335496340857" y2="179.36399039839753" fill="none" stroke="rgb(50,50,50)" stroke-opacity="1" stroke-width="1"/><line x1="224.4861152055337" y1="175.36399039839753" x2="224.4861152055337" y2="179.36399039839753" fill="none" stroke="rgb(50,50,50)" stroke-opacity="1" stroke-width="1"/><line x1="233.23887544765887" y1="175.36399039839753" x2="233.23887544765887" y2="179.36399039839753" fill="none" stroke="rgb(50,50,50)" stroke-opacity="1" stroke-width="1"/><line x1="241.991635689784" y1="175.36399039839753" x2="241.991635689784" y2="179.36399039839753" fill="none" stroke="rgb(50,50,50)" stroke-opacity="1" stroke-width="1"/><line x1="250.7443959319091" y1="175.36399039839753" x2="250.7443959319091" y2="179.36399039839753" fill="none" stroke="rgb(50,50,50)" stroke-opacity="1" stroke-width="1"/><line x1="259.4971561740342" y1="175.36399039839753" x2="259.4971561740342" y2="179.36399039839753" fill="none" stroke="rgb(50,50,50)" stroke-opacity="1" stroke-width="1"/><line x1="268.24991641615935" y1="175.36399039839753" x2="268.24991641615935" y2="179.36399039839753" fill="none" stroke="rgb(50,50,50)" stroke-opacity="1" stroke-width="1"/><line x1="277.00267665828454" y1="175.36399039839753" x2="277.00267665828454" y2="179.36399039839753" fill="none" stroke="rgb(50,50,50)" stroke-opacity="1" stroke-width="1"/><line x1="285.7554369004097" y1="175.36399039839753" x2="285.7554369004097" y2="179.36399039839753" fill="none" stroke="rgb(50,50,50)" stroke-opacity="1" stroke-width="1"/><line x1="294.50819714253475" y1="175.36399039839753" x2="294.50819714253475" y2="179.36399039839753" fill="none" stroke="rgb(50,50,50)" stroke-opacity="1" stroke-width="1"/><line x1="303.26095738465995" y1="175.36399039839753" x2="303.26095738465995" y2="179.36399039839753" fill="none" stroke="rgb(50,50,50)" stroke-opacity="1" stroke-width="1"/><line x1="312.013717626785" y1="175.36399039839753" x2="312.013717626785" y2="179.36399039839753" fill="none" stroke="rgb(50,50,50)" stroke-opacity="1" stroke-width="1"/><line x1="320.7664778689102" y1="175.36399039839753" x2="320.7664778689102" y2="179.36399039839753" fill="none" stroke="rgb(50,50,50)" stroke-opacity="1" stroke-width="1"/><line x1="329.5192381110353" y1="175.36399039839753" x2="329.5192381110353" y2="179.36399039839753" fill="none" stroke="rgb(50,50,50)" stroke-opacity="1" stroke-width="1"/><line x1="338.2719983531605" y1="175.36399039839753" x2="338.2719983531605" y2="179.36399039839753" fill="none" stroke="rgb(50,50,50)" stroke-opacity="1" stroke-width="1"/><line x1="347.0247585952856" y1="175.36399039839753" x2="347.0247585952856" y2="179.36399039839753" fill="none" stroke="rgb(50,50,50)" stroke-opacity="1" stroke-width="1"/><line x1="355.77751883741075" y1="175.36399039839753" x2="355.77751883741075" y2="179.36399039839753" fill="none" stroke="rgb(50,50,50)" stroke-opacity="1" stroke-width="1"/><line x1="364.53027907953583" y1="175.36399039839753" x2="364.53027907953583" y2="179.36399039839753" fill="none" stroke="rgb(50,50,50)" stroke-opacity="1" stroke-width="1"/><line x1="373.2830393216611" y1="175.36399039839753" x2="373.2830393216611" y2="179.36399039839753" fill="none" stroke="rgb(50,50,50)" stroke-opacity="1" stroke-width="1"/><line x1="382.03579956378616" y1="175.36399039839753" x2="382.03579956378616" y2="179.36399039839753" fill="none" stroke="rgb(50,50,50)" stroke-opacity="1" stroke-width="1"/><line x1="390.7885598059113" y1="175.36399039839753" x2="390.7885598059113" y2="179.36399039839753" fill="none" stroke="rgb(50,50,50)" stroke-opacity="1" stroke-width="1"/><line x1="399.5413200480364" y1="175.36399039839753" x2="399.5413200480364" y2="179.36399039839753" fill="none" stroke="rgb(50,50,50)" stroke-opacity="1" stroke-width="1"/><line x1="408.2940802901616" y1="175.36399039839753" x2="408.2940802901616" y2="179.36399039839753" fill="none" stroke="rgb(50,50,50)" stroke-opacity="1" stroke-width="1"/><line x1="31.92538987878074" y1="175.36399039839753" x2="31.92538987878074" y2="179.36399039839753" fill="none" stroke="rgb(50,50,50)" stroke-opacity="1" stroke-width="1"/><line x1="23.1726296366556" y1="175.36399039839753" x2="23.1726296366556" y2="179.36399039839753" fill="none" stroke="rgb(50,50,50)" stroke-opacity="1" stroke-width="1"/><line x1="14.41986939453046" y1="175.36399039839753" x2="14.41986939453046" y2="179.36399039839753" fill="none" stroke="rgb(50,50,50)" stroke-opacity="1" stroke-width="1"/><line x1="5.667109152405321" y1="175.36399039839753" x2="5.667109152405321" y2="179.36399039839753" fill="none" stroke="rgb(50,50,50)" stroke-opacity="1" stroke-width="1"/><line x1="31.92538987878074" y1="173.36399039839753" x2="31.92538987878074" y2="181.36399039839753" fill="none" stroke="rgb(50,50,50)" stroke-opacity="1" stroke-width="1"/><line x1="119.45299230003207" y1="173.36399039839753" x2="119.45299230003207" y2="181.36399039839753" fill="none" stroke="rgb(50,50,50)" stroke-opacity="1" stroke-width="1"/><line x1="294.50819714253475" y1="173.36399039839753" x2="294.50819714253475" y2="181.36399039839753" fill="none" stroke="rgb(50,50,50)" stroke-opacity="1" stroke-width="1"/><line x1="382.035799563786" y1="173.36399039839753" x2="382.035799563786" y2="181.36399039839753" fill="none" stroke="rgb(50,50,50)" stroke-opacity="1" stroke-width="1"/><path d="M421,173.76399039839754 L429,177.36399039839753 L421,180.96399039839753 Z" stroke="none" stroke-width="1" fill="rgb(50,50,50)" fill-opacity="1"/></g><g class="test-yti" style="font-family: Asana-Math, Asana;"><line x1="206.98059472128335" y1="4" x2="206.98059472128335" y2="200" fill="none" stroke="rgb(50,50,50)" stroke-opacity="1" stroke-width="1"/><line x1="202.98059472128335" y1="89.83638797714622" x2="210.98059472128335" y2="89.83638797714622" fill="none" stroke="rgb(50,50,50)" stroke-opacity="1" stroke-width="1"/><line x1="202.98059472128335" y1="2.3087855558949" x2="210.98059472128335" y2="2.3087855558949" fill="none" stroke="rgb(50,50,50)" stroke-opacity="1" stroke-width="1"/><path d="M203.38059472128336,9 L206.98059472128335,1 L210.58059472128335,9 Z" stroke="none" stroke-width="1" fill="rgb(50,50,50)" fill-opacity="1"/></g><g class="test-plot-expression"><defs><clipPath id="cpu2m3bni7i"><rect x="1" y="1" width="428" height="198"/></clipPath></defs><g clip-path="url(#cpu2m3bni7i)"><path d=" M0.00,-200.00 L0.50,-200.00 L1.00,-200.00 L1.50,-200.00 L2.00,-200.00 L2.50,-200.00 L3.00,-200.00 L3.50,-200.00 L4.00,-200.00 L4.51,-200.00 L5.01,-200.00 L5.51,-200.00 L6.01,-200.00 L6.51,-200.00 L7.01,-200.00 L7.51,-200.00 L8.01,-200.00 L8.51,-200.00 L9.01,-200.00 L9.51,-200.00 L10.01,-200.00 L10.51,-200.00 L11.01,-200.00 L11.51,-200.00 L12.01,-200.00 L12.51,-200.00 L13.02,-200.00 L13.52,-200.00 L14.02,-200.00 L14.52,-200.00 L15.02,-200.00 L15.52,-200.00 L16.02,-200.00 L16.52,-200.00 L17.02,-200.00 L17.52,-200.00 L18.02,-200.00 L18.52,-200.00 L19.02,-200.00 L19.52,-200.00 L20.02,-200.00 L20.52,-200.00 L21.02,-200.00 L21.53,-200.00 L22.03,-200.00 L22.53,-200.00 L23.03,-200.00 L23.53,-200.00 L24.03,-200.00 L24.53,-200.00 L25.03,-200.00 L25.53,-200.00 L26.03,-200.00 L26.53,-200.00 L27.03,-200.00 L27.53,-200.00 L28.03,-200.00 L28.53,-200.00 L29.03,-200.00 L29.53,-200.00 L30.03,-200.00 L30.54,-200.00 L31.04,-200.00 L31.54,-200.00 L32.04,-200.00 L32.54,-200.00 L33.04,-200.00 L33.54,-200.00 L34.04,-200.00 L34.54,-200.00 L35.04,-200.00 L35.54,-200.00 L36.04,-200.00 L36.54,-200.00 L37.04,-200.00 L37.54,-200.00 L38.04,-200.00 L38.54,-200.00 L39.05,-200.00 L39.55,-200.00 L40.05,-200.00 L40.55,-200.00 L41.05,-200.00 L41.55,-200.00 L42.05,-200.00 L42.55,-200.00 L43.05,-200.00 L43.55,-200.00 L44.05,-200.00 L44.55,-200.00 L45.05,-200.00 L45.55,-200.00 L46.05,-200.00 L46.55,-200.00 L47.05,-200.00 L47.56,-200.00 L48.06,-200.00 L48.56,-200.00 L49.06,-200.00 L49.56,-200.00 L50.06,-200.00 L50.56,-200.00 L51.06,-200.00 L51.56,-200.00 L52.06,-200.00 L52.56,-200.00 L53.06,-200.00 L53.56,-200.00 L54.06,-200.00 L54.56,-200.00 L55.06,-200.00 L55.56,-200.00 L56.07,-200.00 L56.57,-200.00 L57.07,-200.00 L57.57,-200.00 L58.07,-200.00 L58.57,-200.00 L59.07,-200.00 L59.57,-200.00 L60.07,-200.00 L60.57,-200.00 L61.07,-200.00 L61.57,-200.00 L62.07,-200.00 L62.57,-200.00 L63.07,-200.00 L63.57,-200.00 L64.07,-200.00 L64.58,-200.00 L65.08,-200.00 L65.58,-200.00 L66.08,-200.00 L66.58,-200.00 L67.08,-200.00 L67.58,-200.00 L68.08,-200.00 L68.58,-200.00 L69.08,-200.00 L69.58,-200.00 L70.08,-200.00 L70.58,-200.00 L71.08,-200.00 L71.58,-200.00 L72.08,-200.00 L72.58,-200.00 L73.08,-200.00 L73.59,-200.00 L74.09,-200.00 L74.59,-200.00 L75.09,-200.00 L75.59,-200.00 L76.09,-200.00 L76.59,-200.00 L77.09,-200.00 L77.59,-200.00 L78.09,-200.00 L78.59,-199.29 L79.09,-196.36 L79.59,-193.44 L80.09,-190.53 L80.59,-187.63 L81.09,-184.75 L81.59,-181.87 L82.10,-179.01 L82.60,-176.16 L83.10,-173.32 L83.60,-170.49 L84.10,-167.67 L84.60,-164.87 L85.10,-162.07 L85.60,-159.29 L86.10,-156.52 L86.60,-153.76 L87.10,-151.01 L87.60,-148.28 L88.10,-145.55 L88.60,-142.84 L89.10,-140.14 L89.60,-137.44 L90.10,-134.77 L90.61,-132.10 L91.11,-129.44 L91.61,-126.80 L92.11,-124.16 L92.61,-121.54 L93.11,-118.93 L93.61,-116.33 L94.11,-113.74 L94.61,-111.17 L95.11,-108.60 L95.61,-106.05 L96.11,-103.51 L96.61,-100.97 L97.11,-98.46 L97.61,-95.95 L98.11,-93.45 L98.61,-90.97 L99.12,-88.49 L99.62,-86.03 L100.12,-83.58 L100.62,-81.14 L101.12,-78.71 L101.62,-76.30 L102.12,-73.89 L102.62,-71.50 L103.12,-69.12 L103.62,-66.75 L104.12,-64.39 L104.62,-62.04 L105.12,-59.71 L105.62,-57.38 L106.12,-55.07 L106.62,-52.77 L107.12,-50.48 L107.63,-48.20 L108.13,-45.93 L108.63,-43.68 L109.13,-41.43 L109.63,-39.20 L110.13,-36.98 L110.63,-34.77 L111.13,-32.57 L111.63,-30.38 L112.13,-28.21 L112.63,-26.04 L113.13,-23.89 L113.63,-21.75 L114.13,-19.62 L114.63,-17.50 L115.13,-15.39 L115.63,-13.30 L116.14,-11.21 L116.64,-9.14 L117.14,-7.08 L117.64,-5.03 L118.14,-2.99 L118.64,-0.97 L119.14,1.05 L119.64,3.05 L120.14,5.04 L120.64,7.03 L121.14,9.00 L121.64,10.95 L122.14,12.90 L122.64,14.83 L123.14,16.76 L123.64,18.67 L124.14,20.57 L124.64,22.46 L125.15,24.34 L125.65,26.20 L126.15,28.06 L126.65,29.90 L127.15,31.74 L127.65,33.56 L128.15,35.36 L128.65,37.16 L129.15,38.95 L129.65,40.72 L130.15,42.49 L130.65,44.24 L131.15,45.98 L131.65,47.71 L132.15,49.43 L132.65,51.13 L133.15,52.83 L133.66,54.51 L134.16,56.18 L134.66,57.84 L135.16,59.49 L135.66,61.13 L136.16,62.75 L136.66,64.37 L137.16,65.97 L137.66,67.56 L138.16,69.14 L138.66,70.71 L139.16,72.27 L139.66,73.81 L140.16,75.35 L140.66,76.87 L141.16,78.38 L141.66,79.88 L142.17,81.37 L142.67,82.85 L143.17,84.31 L143.67,85.77 L144.17,87.21 L144.67,88.64 L145.17,90.06 L145.67,91.47 L146.17,92.87 L146.67,94.25 L147.17,95.63 L147.67,96.99 L148.17,98.34 L148.67,99.68 L149.17,101.01 L149.67,102.32 L150.17,103.63 L150.68,104.92 L151.18,106.21 L151.68,107.48 L152.18,108.74 L152.68,109.98 L153.18,111.22 L153.68,112.45 L154.18,113.66 L154.68,114.86 L155.18,116.05 L155.68,117.23 L156.18,118.40 L156.68,119.56 L157.18,120.70 L157.68,121.83 L158.18,122.96 L158.68,124.07 L159.19,125.17 L159.69,126.25 L160.19,127.33 L160.69,128.39 L161.19,129.45 L161.69,130.49 L162.19,131.52 L162.69,132.54 L163.19,133.55 L163.69,134.54 L164.19,135.53 L164.69,136.50 L165.19,137.46 L165.69,138.41 L166.19,139.35 L166.69,140.28 L167.19,141.19 L167.69,142.10 L168.20,142.99 L168.70,143.87 L169.20,144.74 L169.70,145.60 L170.20,146.45 L170.70,147.28 L171.20,148.11 L171.70,148.92 L172.20,149.72 L172.70,150.51 L173.20,151.29 L173.70,152.06 L174.20,152.81 L174.70,153.56 L175.20,154.29 L175.70,155.01 L176.20,155.72 L176.71,156.42 L177.21,157.11 L177.71,157.78 L178.21,158.45 L178.71,159.10 L179.21,159.74 L179.71,160.37 L180.21,160.99 L180.71,161.59 L181.21,162.19 L181.71,162.77 L182.21,163.35 L182.71,163.91 L183.21,164.46 L183.71,164.99 L184.21,165.52 L184.71,166.04 L185.22,166.54 L185.72,167.03 L186.22,167.51 L186.72,167.98 L187.22,168.44 L187.72,168.89 L188.22,169.32 L188.72,169.74 L189.22,170.16 L189.72,170.56 L190.22,170.95 L190.72,171.32 L191.22,171.69 L191.72,172.04 L192.22,172.39 L192.72,172.72 L193.22,173.04 L193.73,173.35 L194.23,173.65 L194.73,173.93 L195.23,174.21 L195.73,174.47 L196.23,174.72 L196.73,174.96 L197.23,175.19 L197.73,175.41 L198.23,175.61 L198.73,175.81 L199.23,175.99 L199.73,176.16 L200.23,176.32 L200.73,176.47 L201.23,176.61 L201.73,176.74 L202.24,176.85 L202.74,176.95 L203.24,177.04 L203.74,177.12 L204.24,177.19 L204.74,177.25 L205.24,177.29 L205.74,177.33 L206.24,177.35 L206.74,177.36 L207.24,177.36 L207.74,177.35 L208.24,177.33 L208.74,177.29 L209.24,177.25 L209.74,177.19 L210.24,177.12 L210.75,177.04 L211.25,176.95 L211.75,176.85 L212.25,176.73 L212.75,176.60 L213.25,176.47 L213.75,176.32 L214.25,176.16 L214.75,175.98 L215.25,175.80 L215.75,175.61 L216.25,175.40 L216.75,175.18 L217.25,174.95 L217.75,174.71 L218.25,174.46 L218.75,174.20 L219.25,173.92 L219.76,173.63 L220.26,173.34 L220.76,173.03 L221.26,172.71 L221.76,172.37 L222.26,172.03 L222.76,171.68 L223.26,171.31 L223.76,170.93 L224.26,170.54 L224.76,170.14 L225.26,169.73 L225.76,169.30 L226.26,168.87 L226.76,168.42 L227.26,167.96 L227.76,167.49 L228.27,167.01 L228.77,166.52 L229.27,166.02 L229.77,165.50 L230.27,164.97 L230.77,164.43 L231.27,163.88 L231.77,163.32 L232.27,162.75 L232.77,162.17 L233.27,161.57 L233.77,160.96 L234.27,160.34 L234.77,159.71 L235.27,159.07 L235.77,158.42 L236.27,157.76 L236.78,157.08 L237.28,156.39 L237.78,155.69 L238.28,154.98 L238.78,154.26 L239.28,153.53 L239.78,152.78 L240.28,152.03 L240.78,151.26 L241.28,150.48 L241.78,149.69 L242.28,148.89 L242.78,148.08 L243.28,147.25 L243.78,146.41 L244.28,145.57 L244.78,144.71 L245.29,143.84 L245.79,142.96 L246.29,142.06 L246.79,141.16 L247.29,140.24 L247.79,139.31 L248.29,138.37 L248.79,137.42 L249.29,136.46 L249.79,135.49 L250.29,134.50 L250.79,133.51 L251.29,132.50 L251.79,131.48 L252.29,130.45 L252.79,129.41 L253.29,128.35 L253.80,127.29 L254.30,126.21 L254.80,125.12 L255.30,124.02 L255.80,122.91 L256.30,121.79 L256.80,120.65 L257.30,119.51 L257.80,118.35 L258.30,117.18 L258.80,116.00 L259.30,114.81 L259.80,113.61 L260.30,112.40 L260.80,111.17 L261.30,109.93 L261.80,108.69 L262.31,107.43 L262.81,106.15 L263.31,104.87 L263.81,103.58 L264.31,102.27 L264.81,100.95 L265.31,99.63 L265.81,98.29 L266.31,96.93 L266.81,95.57 L267.31,94.20 L267.81,92.81 L268.31,91.41 L268.81,90.00 L269.31,88.58 L269.81,87.15 L270.31,85.71 L270.81,84.25 L271.32,82.79 L271.82,81.31 L272.32,79.82 L272.82,78.32 L273.32,76.81 L273.82,75.29 L274.32,73.75 L274.82,72.21 L275.32,70.65 L275.82,69.08 L276.32,67.50 L276.82,65.91 L277.32,64.30 L277.82,62.69 L278.32,61.06 L278.82,59.42 L279.32,57.77 L279.83,56.11 L280.33,54.44 L280.83,52.76 L281.33,51.06 L281.83,49.36 L282.33,47.64 L282.83,45.91 L283.33,44.17 L283.83,42.42 L284.33,40.65 L284.83,38.88 L285.33,37.09 L285.83,35.29 L286.33,33.48 L286.83,31.66 L287.33,29.83 L287.83,27.99 L288.34,26.13 L288.84,24.26 L289.34,22.38 L289.84,20.49 L290.34,18.59 L290.84,16.68 L291.34,14.76 L291.84,12.82 L292.34,10.87 L292.84,8.92 L293.34,6.95 L293.84,4.96 L294.34,2.97 L294.84,0.97 L295.34,-1.05 L295.84,-3.08 L296.34,-5.11 L296.85,-7.16 L297.35,-9.23 L297.85,-11.30 L298.35,-13.38 L298.85,-15.48 L299.35,-17.59 L299.85,-19.70 L300.35,-21.83 L300.85,-23.98 L301.35,-26.13 L301.85,-28.29 L302.35,-30.47 L302.85,-32.66 L303.35,-34.86 L303.85,-37.07 L304.35,-39.29 L304.85,-41.52 L305.36,-43.77 L305.86,-46.02 L306.36,-48.29 L306.86,-50.57 L307.36,-52.86 L307.86,-55.16 L308.36,-57.48 L308.86,-59.80 L309.36,-62.14 L309.86,-64.49 L310.36,-66.84 L310.86,-69.22 L311.36,-71.60 L311.86,-73.99 L312.36,-76.40 L312.86,-78.81 L313.36,-81.24 L313.86,-83.68 L314.37,-86.13 L314.87,-88.59 L315.37,-91.07 L315.87,-93.55 L316.37,-96.05 L316.87,-98.56 L317.37,-101.08 L317.87,-103.61 L318.37,-106.15 L318.87,-108.70 L319.37,-111.27 L319.87,-113.85 L320.37,-116.43 L320.87,-119.03 L321.37,-121.65 L321.87,-124.27 L322.37,-126.90 L322.88,-129.55 L323.38,-132.20 L323.88,-134.87 L324.38,-137.55 L324.88,-140.24 L325.38,-142.95 L325.88,-145.66 L326.38,-148.39 L326.88,-151.12 L327.38,-153.87 L327.88,-156.63 L328.38,-159.40 L328.88,-162.19 L329.38,-164.98 L329.88,-167.79 L330.38,-170.60 L330.88,-173.43 L331.39,-176.27 L331.89,-179.13 L332.39,-181.99 L332.89,-184.86 L333.39,-187.75 L333.89,-190.65 L334.39,-193.56 L334.89,-196.48 L335.39,-199.41 L335.89,-200.00 L336.39,-200.00 L336.89,-200.00 L337.39,-200.00 L337.89,-200.00 L338.39,-200.00 L338.89,-200.00 L339.39,-200.00 L339.90,-200.00 L340.40,-200.00 L340.90,-200.00 L341.40,-200.00 L341.90,-200.00 L342.40,-200.00 L342.90,-200.00 L343.40,-200.00 L343.90,-200.00 L344.40,-200.00 L344.90,-200.00 L345.40,-200.00 L345.90,-200.00 L346.40,-200.00 L346.90,-200.00 L347.40,-200.00 L347.90,-200.00 L348.41,-200.00 L348.91,-200.00 L349.41,-200.00 L349.91,-200.00 L350.41,-200.00 L350.91,-200.00 L351.41,-200.00 L351.91,-200.00 L352.41,-200.00 L352.91,-200.00 L353.41,-200.00 L353.91,-200.00 L354.41,-200.00 L354.91,-200.00 L355.41,-200.00 L355.91,-200.00 L356.41,-200.00 L356.92,-200.00 L357.42,-200.00 L357.92,-200.00 L358.42,-200.00 L358.92,-200.00 L359.42,-200.00 L359.92,-200.00 L360.42,-200.00 L360.92,-200.00 L361.42,-200.00 L361.92,-200.00 L362.42,-200.00 L362.92,-200.00 L363.42,-200.00 L363.92,-200.00 L364.42,-200.00 L364.92,-200.00 L365.42,-200.00 L365.93,-200.00 L366.43,-200.00 L366.93,-200.00 L367.43,-200.00 L367.93,-200.00 L368.43,-200.00 L368.93,-200.00 L369.43,-200.00 L369.93,-200.00 L370.43,-200.00 L370.93,-200.00 L371.43,-200.00 L371.93,-200.00 L372.43,-200.00 L372.93,-200.00 L373.43,-200.00 L373.93,-200.00 L374.44,-200.00 L374.94,-200.00 L375.44,-200.00 L375.94,-200.00 L376.44,-200.00 L376.94,-200.00 L377.44,-200.00 L377.94,-200.00 L378.44,-200.00 L378.94,-200.00 L379.44,-200.00 L379.94,-200.00 L380.44,-200.00 L380.94,-200.00 L381.44,-200.00 L381.94,-200.00 L382.44,-200.00 L382.95,-200.00 L383.45,-200.00 L383.95,-200.00 L384.45,-200.00 L384.95,-200.00 L385.45,-200.00 L385.95,-200.00 L386.45,-200.00 L386.95,-200.00 L387.45,-200.00 L387.95,-200.00 L388.45,-200.00 L388.95,-200.00 L389.45,-200.00 L389.95,-200.00 L390.45,-200.00 L390.95,-200.00 L391.46,-200.00 L391.96,-200.00 L392.46,-200.00 L392.96,-200.00 L393.46,-200.00 L393.96,-200.00 L394.46,-200.00 L394.96,-200.00 L395.46,-200.00 L395.96,-200.00 L396.46,-200.00 L396.96,-200.00 L397.46,-200.00 L397.96,-200.00 L398.46,-200.00 L398.96,-200.00 L399.46,-200.00 L399.97,-200.00 L400.47,-200.00 L400.97,-200.00 L401.47,-200.00 L401.97,-200.00 L402.47,-200.00 L402.97,-200.00 L403.47,-200.00 L403.97,-200.00 L404.47,-200.00 L404.97,-200.00 L405.47,-200.00 L405.97,-200.00 L406.47,-200.00 L406.97,-200.00 L407.47,-200.00 L407.97,-200.00 L408.47,-200.00 L408.98,-200.00 L409.48,-200.00 L409.98,-200.00 L410.48,-200.00 L410.98,-200.00 L411.48,-200.00 L411.98,-200.00 L412.48,-200.00 L412.98,-200.00 L413.48,-200.00 L413.98,-200.00 L414.48,-200.00 L414.98,-200.00 L415.48,-200.00 L415.98,-200.00 L416.48,-200.00 L416.98,-200.00 L417.49,-200.00 L417.99,-200.00 L418.49,-200.00 L418.99,-200.00 L419.49,-200.00 L419.99,-200.00 L420.49,-200.00 L420.99,-200.00 L421.49,-200.00 L421.99,-200.00 L422.49,-200.00 L422.99,-200.00 L423.49,-200.00 L423.99,-200.00 L424.49,-200.00 L424.99,-200.00 L425.49,-200.00 L426.00,-200.00 L426.50,-200.00 L427.00,-200.00 L427.50,-200.00 L428.00,-200.00 L428.50,-200.00 L429.00,-200.00 L429.50,-200.00 L430.00,-200.00" style="stroke-width: 2; stroke: rgb(74, 144, 226); stroke-opacity: 0.8;"/></g></g><g class="test-xtl" style="font-family: &quot;Open Sans&quot;, verdana, arial, sans-serif;"><text text-anchor="middle" font-size="11" dominant-baseline="hanging" stroke="none" fill="rgb(50,50,50)" fill-opacity="1" x="28.790389878780744" y="184.36399039839753">-4</text><text text-anchor="middle" font-size="11" dominant-baseline="hanging" stroke="none" fill="rgb(50,50,50)" fill-opacity="1" x="116.31799230003206" y="184.36399039839753">-2</text><text text-anchor="middle" font-size="11" dominant-baseline="hanging" stroke="none" fill="rgb(50,50,50)" fill-opacity="1" x="294.50819714253475" y="184.36399039839753">2</text><text text-anchor="middle" font-size="11" dominant-baseline="hanging" stroke="none" fill="rgb(50,50,50)" fill-opacity="1" x="382.035799563786" y="184.36399039839753">4</text><text text-anchor="middle" font-size="11" dominant-baseline="hanging" stroke="none" fill="rgb(50,50,50)" fill-opacity="1" x="198.98059472128338" y="182.36399039839753">0</text></g><g class="test-ytl" style="font-family: &quot;Open Sans&quot;, verdana, arial, sans-serif;"><text text-anchor="end" dominant-baseline="middle" font-size="11" stroke="none" fill="rgb(50,50,50)" fill-opacity="1" x="198.98059472128335" y="89.83638797714622">2</text><text text-anchor="end" dominant-baseline="middle" font-size="11" stroke="none" fill="rgb(50,50,50)" fill-opacity="1" x="198.98059472128335" y="2.3087855558949">4</text></g><rect class="real" x="1" y="1" width="428" height="198" style="fill: transparent; stroke: none;"/></g></g></g><g/></g><g/><g/><g/></svg>
        <svg xmlns="http://www.w3.org/2000/svg" xmlns:xlink="http://www.w3.org/1999/xlink" width="660" height="300" style="width:660px;height:300px;font-family:Asana-Math, Asana;background:transparent;"></svg>
</svg>
