<svg xmlns="http://www.w3.org/2000/svg" xmlns:xlink="http://www.w3.org/1999/xlink" x="0" y="0" width="661.6000366210938" height="301.6000061035156" style="
        width:661.6000366210938px;
        height:301.6000061035156px;
        background: transparent;
        fill: none;
">
        
        
        <svg xmlns="http://www.w3.org/2000/svg" class="role-diagram-draw-area"><g class="shapes-region" style="stroke: black; fill: none;"><g class="composite-shape" data-amt="diagram/shapes/plot" transform="matrix(1,0,0,1,102,47)"><g><g><g class="test-xgi"><line x1="70" y1="0" x2="70" y2="200" fill="none" stroke="#c3c3c3" stroke-width="0.5"/><line x1="200" y1="0" x2="200" y2="200" fill="none" stroke="#c3c3c3" stroke-width="0.5"/><line x1="330" y1="0" x2="330" y2="200" fill="none" stroke="#c3c3c3" stroke-width="0.5"/></g><g class="test-ygi"><line x1="0" y1="100" x2="430" y2="100" fill="none" stroke="#c3c3c3" stroke-width="0.5"/></g></g><g><g class="test-xti" style="font-family: Asana-Math, Asana;"><line x1="0" y1="100" x2="426" y2="100" fill="none" stroke="rgb(50,50,50)" stroke-opacity="1" stroke-width="1"/><line x1="70" y1="96" x2="70" y2="104" fill="none" stroke="rgb(50,50,50)" stroke-opacity="1" stroke-width="1"/><line x1="330" y1="96" x2="330" y2="104" fill="none" stroke="rgb(50,50,50)" stroke-opacity="1" stroke-width="1"/><path d="M421,96.4 L429,100 L421,103.6 Z" stroke="none" stroke-width="1" fill="rgb(50,50,50)" fill-opacity="1"/></g><g class="test-yti" style="font-family: Asana-Math, Asana;"><line x1="200" y1="4" x2="200" y2="200" fill="none" stroke="rgb(50,50,50)" stroke-opacity="1" stroke-width="1"/><path d="M196.4,9 L200,1 L203.6,9 Z" stroke="none" stroke-width="1" fill="rgb(50,50,50)" fill-opacity="1"/></g><g class="test-plot-expression"><defs><clipPath id="cpu2m3bni7i"><rect x="1" y="1" width="428" height="198"/></clipPath></defs><g clip-path="url(#cpu2m3bni7i)"><path d=" M0.00,300.00 L0.50,299.50 L1.00,299.00 L1.50,298.50 L2.00,298.00 L2.50,297.50 L3.00,297.00 L3.50,296.50 L4.00,296.00 L4.51,295.49 L5.01,294.99 L5.51,294.49 L6.01,293.99 L6.51,293.49 L7.01,292.99 L7.51,292.49 L8.01,291.99 L8.51,291.49 L9.01,290.99 L9.51,290.49 L10.01,289.99 L10.51,289.49 L11.01,288.99 L11.51,288.49 L12.01,287.99 L12.51,287.49 L13.02,286.98 L13.52,286.48 L14.02,285.98 L14.52,285.48 L15.02,284.98 L15.52,284.48 L16.02,283.98 L16.52,283.48 L17.02,282.98 L17.52,282.48 L18.02,281.98 L18.52,281.48 L19.02,280.98 L19.52,280.48 L20.02,279.98 L20.52,279.48 L21.02,278.98 L21.53,278.47 L22.03,277.97 L22.53,277.47 L23.03,276.97 L23.53,276.47 L24.03,275.97 L24.53,275.47 L25.03,274.97 L25.53,274.47 L26.03,273.97 L26.53,273.47 L27.03,272.97 L27.53,272.47 L28.03,271.97 L28.53,271.47 L29.03,270.97 L29.53,270.47 L30.03,269.97 L30.54,269.46 L31.04,268.96 L31.54,268.46 L32.04,267.96 L32.54,267.46 L33.04,266.96 L33.54,266.46 L34.04,265.96 L34.54,265.46 L35.04,264.96 L35.54,264.46 L36.04,263.96 L36.54,263.46 L37.04,262.96 L37.54,262.46 L38.04,261.96 L38.54,261.46 L39.05,260.95 L39.55,260.45 L40.05,259.95 L40.55,259.45 L41.05,258.95 L41.55,258.45 L42.05,257.95 L42.55,257.45 L43.05,256.95 L43.55,256.45 L44.05,255.95 L44.55,255.45 L45.05,254.95 L45.55,254.45 L46.05,253.95 L46.55,253.45 L47.05,252.95 L47.56,252.44 L48.06,251.94 L48.56,251.44 L49.06,250.94 L49.56,250.44 L50.06,249.94 L50.56,249.44 L51.06,248.94 L51.56,248.44 L52.06,247.94 L52.56,247.44 L53.06,246.94 L53.56,246.44 L54.06,245.94 L54.56,245.44 L55.06,244.94 L55.56,244.44 L56.07,243.93 L56.57,243.43 L57.07,242.93 L57.57,242.43 L58.07,241.93 L58.57,241.43 L59.07,240.93 L59.57,240.43 L60.07,239.93 L60.57,239.43 L61.07,238.93 L61.57,238.43 L62.07,237.93 L62.57,237.43 L63.07,236.93 L63.57,236.43 L64.07,235.93 L64.58,235.42 L65.08,234.92 L65.58,234.42 L66.08,233.92 L66.58,233.42 L67.08,232.92 L67.58,232.42 L68.08,231.92 L68.58,231.42 L69.08,230.92 L69.58,230.42 L70.08,229.92 L70.58,229.42 L71.08,228.92 L71.58,228.42 L72.08,227.92 L72.58,227.42 L73.08,226.92 L73.59,226.41 L74.09,225.91 L74.59,225.41 L75.09,224.91 L75.59,224.41 L76.09,223.91 L76.59,223.41 L77.09,222.91 L77.59,222.41 L78.09,221.91 L78.59,221.41 L79.09,220.91 L79.59,220.41 L80.09,219.91 L80.59,219.41 L81.09,218.91 L81.59,218.41 L82.10,217.90 L82.60,217.40 L83.10,216.90 L83.60,216.40 L84.10,215.90 L84.60,215.40 L85.10,214.90 L85.60,214.40 L86.10,213.90 L86.60,213.40 L87.10,212.90 L87.60,212.40 L88.10,211.90 L88.60,211.40 L89.10,210.90 L89.60,210.40 L90.10,209.90 L90.61,209.39 L91.11,208.89 L91.61,208.39 L92.11,207.89 L92.61,207.39 L93.11,206.89 L93.61,206.39 L94.11,205.89 L94.61,205.39 L95.11,204.89 L95.61,204.39 L96.11,203.89 L96.61,203.39 L97.11,202.89 L97.61,202.39 L98.11,201.89 L98.61,201.39 L99.12,200.88 L99.62,200.38 L100.12,199.88 L100.62,199.38 L101.12,198.88 L101.62,198.38 L102.12,197.88 L102.62,197.38 L103.12,196.88 L103.62,196.38 L104.12,195.88 L104.62,195.38 L105.12,194.88 L105.62,194.38 L106.12,193.88 L106.62,193.38 L107.12,192.88 L107.63,192.37 L108.13,191.87 L108.63,191.37 L109.13,190.87 L109.63,190.37 L110.13,189.87 L110.63,189.37 L111.13,188.87 L111.63,188.37 L112.13,187.87 L112.63,187.37 L113.13,186.87 L113.63,186.37 L114.13,185.87 L114.63,185.37 L115.13,184.87 L115.63,184.37 L116.14,183.86 L116.64,183.36 L117.14,182.86 L117.64,182.36 L118.14,181.86 L118.64,181.36 L119.14,180.86 L119.64,180.36 L120.14,179.86 L120.64,179.36 L121.14,178.86 L121.64,178.36 L122.14,177.86 L122.64,177.36 L123.14,176.86 L123.64,176.36 L124.14,175.86 L124.64,175.36 L125.15,174.85 L125.65,174.35 L126.15,173.85 L126.65,173.35 L127.15,172.85 L127.65,172.35 L128.15,171.85 L128.65,171.35 L129.15,170.85 L129.65,170.35 L130.15,169.85 L130.65,169.35 L131.15,168.85 L131.65,168.35 L132.15,167.85 L132.65,167.35 L133.15,166.85 L133.66,166.34 L134.16,165.84 L134.66,165.34 L135.16,164.84 L135.66,164.34 L136.16,163.84 L136.66,163.34 L137.16,162.84 L137.66,162.34 L138.16,161.84 L138.66,161.34 L139.16,160.84 L139.66,160.34 L140.16,159.84 L140.66,159.34 L141.16,158.84 L141.66,158.34 L142.17,157.83 L142.67,157.33 L143.17,156.83 L143.67,156.33 L144.17,155.83 L144.67,155.33 L145.17,154.83 L145.67,154.33 L146.17,153.83 L146.67,153.33 L147.17,152.83 L147.67,152.33 L148.17,151.83 L148.67,151.33 L149.17,150.83 L149.67,150.33 L150.17,149.83 L150.68,149.32 L151.18,148.82 L151.68,148.32 L152.18,147.82 L152.68,147.32 L153.18,146.82 L153.68,146.32 L154.18,145.82 L154.68,145.32 L155.18,144.82 L155.68,144.32 L156.18,143.82 L156.68,143.32 L157.18,142.82 L157.68,142.32 L158.18,141.82 L158.68,141.32 L159.19,140.81 L159.69,140.31 L160.19,139.81 L160.69,139.31 L161.19,138.81 L161.69,138.31 L162.19,137.81 L162.69,137.31 L163.19,136.81 L163.69,136.31 L164.19,135.81 L164.69,135.31 L165.19,134.81 L165.69,134.31 L166.19,133.81 L166.69,133.31 L167.19,132.81 L167.69,132.31 L168.20,131.80 L168.70,131.30 L169.20,130.80 L169.70,130.30 L170.20,129.80 L170.70,129.30 L171.20,128.80 L171.70,128.30 L172.20,127.80 L172.70,127.30 L173.20,126.80 L173.70,126.30 L174.20,125.80 L174.70,125.30 L175.20,124.80 L175.70,124.30 L176.20,123.80 L176.71,123.29 L177.21,122.79 L177.71,122.29 L178.21,121.79 L178.71,121.29 L179.21,120.79 L179.71,120.29 L180.21,119.79 L180.71,119.29 L181.21,118.79 L181.71,118.29 L182.21,117.79 L182.71,117.29 L183.21,116.79 L183.71,116.29 L184.21,115.79 L184.71,115.29 L185.22,114.78 L185.72,114.28 L186.22,113.78 L186.72,113.28 L187.22,112.78 L187.72,112.28 L188.22,111.78 L188.72,111.28 L189.22,110.78 L189.72,110.28 L190.22,109.78 L190.72,109.28 L191.22,108.78 L191.72,108.28 L192.22,107.78 L192.72,107.28 L193.22,106.78 L193.73,106.27 L194.23,105.77 L194.73,105.27 L195.23,104.77 L195.73,104.27 L196.23,103.77 L196.73,103.27 L197.23,102.77 L197.73,102.27 L198.23,101.77 L198.73,101.27 L199.23,100.77 L199.73,100.27 L200.23,99.77 L200.73,99.27 L201.23,98.77 L201.73,98.27 L202.24,97.76 L202.74,97.26 L203.24,96.76 L203.74,96.26 L204.24,95.76 L204.74,95.26 L205.24,94.76 L205.74,94.26 L206.24,93.76 L206.74,93.26 L207.24,92.76 L207.74,92.26 L208.24,91.76 L208.74,91.26 L209.24,90.76 L209.74,90.26 L210.24,89.76 L210.75,89.25 L211.25,88.75 L211.75,88.25 L212.25,87.75 L212.75,87.25 L213.25,86.75 L213.75,86.25 L214.25,85.75 L214.75,85.25 L215.25,84.75 L215.75,84.25 L216.25,83.75 L216.75,83.25 L217.25,82.75 L217.75,82.25 L218.25,81.75 L218.75,81.25 L219.25,80.75 L219.76,80.24 L220.26,79.74 L220.76,79.24 L221.26,78.74 L221.76,78.24 L222.26,77.74 L222.76,77.24 L223.26,76.74 L223.76,76.24 L224.26,75.74 L224.76,75.24 L225.26,74.74 L225.76,74.24 L226.26,73.74 L226.76,73.24 L227.26,72.74 L227.76,72.24 L228.27,71.73 L228.77,71.23 L229.27,70.73 L229.77,70.23 L230.27,69.73 L230.77,69.23 L231.27,68.73 L231.77,68.23 L232.27,67.73 L232.77,67.23 L233.27,66.73 L233.77,66.23 L234.27,65.73 L234.77,65.23 L235.27,64.73 L235.77,64.23 L236.27,63.73 L236.78,63.22 L237.28,62.72 L237.78,62.22 L238.28,61.72 L238.78,61.22 L239.28,60.72 L239.78,60.22 L240.28,59.72 L240.78,59.22 L241.28,58.72 L241.78,58.22 L242.28,57.72 L242.78,57.22 L243.28,56.72 L243.78,56.22 L244.28,55.72 L244.78,55.22 L245.29,54.71 L245.79,54.21 L246.29,53.71 L246.79,53.21 L247.29,52.71 L247.79,52.21 L248.29,51.71 L248.79,51.21 L249.29,50.71 L249.79,50.21 L250.29,49.71 L250.79,49.21 L251.29,48.71 L251.79,48.21 L252.29,47.71 L252.79,47.21 L253.29,46.71 L253.80,46.20 L254.30,45.70 L254.80,45.20 L255.30,44.70 L255.80,44.20 L256.30,43.70 L256.80,43.20 L257.30,42.70 L257.80,42.20 L258.30,41.70 L258.80,41.20 L259.30,40.70 L259.80,40.20 L260.30,39.70 L260.80,39.20 L261.30,38.70 L261.80,38.20 L262.31,37.69 L262.81,37.19 L263.31,36.69 L263.81,36.19 L264.31,35.69 L264.81,35.19 L265.31,34.69 L265.81,34.19 L266.31,33.69 L266.81,33.19 L267.31,32.69 L267.81,32.19 L268.31,31.69 L268.81,31.19 L269.31,30.69 L269.81,30.19 L270.31,29.69 L270.81,29.19 L271.32,28.68 L271.82,28.18 L272.32,27.68 L272.82,27.18 L273.32,26.68 L273.82,26.18 L274.32,25.68 L274.82,25.18 L275.32,24.68 L275.82,24.18 L276.32,23.68 L276.82,23.18 L277.32,22.68 L277.82,22.18 L278.32,21.68 L278.82,21.18 L279.32,20.68 L279.83,20.17 L280.33,19.67 L280.83,19.17 L281.33,18.67 L281.83,18.17 L282.33,17.67 L282.83,17.17 L283.33,16.67 L283.83,16.17 L284.33,15.67 L284.83,15.17 L285.33,14.67 L285.83,14.17 L286.33,13.67 L286.83,13.17 L287.33,12.67 L287.83,12.17 L288.34,11.66 L288.84,11.16 L289.34,10.66 L289.84,10.16 L290.34,9.66 L290.84,9.16 L291.34,8.66 L291.84,8.16 L292.34,7.66 L292.84,7.16 L293.34,6.66 L293.84,6.16 L294.34,5.66 L294.84,5.16 L295.34,4.66 L295.84,4.16 L296.34,3.66 L296.85,3.15 L297.35,2.65 L297.85,2.15 L298.35,1.65 L298.85,1.15 L299.35,0.65 L299.85,0.15 L300.35,-0.35 L300.85,-0.85 L301.35,-1.35 L301.85,-1.85 L302.35,-2.35 L302.85,-2.85 L303.35,-3.35 L303.85,-3.85 L304.35,-4.35 L304.85,-4.85 L305.36,-5.36 L305.86,-5.86 L306.36,-6.36 L306.86,-6.86 L307.36,-7.36 L307.86,-7.86 L308.36,-8.36 L308.86,-8.86 L309.36,-9.36 L309.86,-9.86 L310.36,-10.36 L310.86,-10.86 L311.36,-11.36 L311.86,-11.86 L312.36,-12.36 L312.86,-12.86 L313.36,-13.36 L313.86,-13.86 L314.37,-14.37 L314.87,-14.87 L315.37,-15.37 L315.87,-15.87 L316.37,-16.37 L316.87,-16.87 L317.37,-17.37 L317.87,-17.87 L318.37,-18.37 L318.87,-18.87 L319.37,-19.37 L319.87,-19.87 L320.37,-20.37 L320.87,-20.87 L321.37,-21.37 L321.87,-21.87 L322.37,-22.37 L322.88,-22.88 L323.38,-23.38 L323.88,-23.88 L324.38,-24.38 L324.88,-24.88 L325.38,-25.38 L325.88,-25.88 L326.38,-26.38 L326.88,-26.88 L327.38,-27.38 L327.88,-27.88 L328.38,-28.38 L328.88,-28.88 L329.38,-29.38 L329.88,-29.88 L330.38,-30.38 L330.88,-30.88 L331.39,-31.39 L331.89,-31.89 L332.39,-32.39 L332.89,-32.89 L333.39,-33.39 L333.89,-33.89 L334.39,-34.39 L334.89,-34.89 L335.39,-35.39 L335.89,-35.89 L336.39,-36.39 L336.89,-36.89 L337.39,-37.39 L337.89,-37.89 L338.39,-38.39 L338.89,-38.89 L339.39,-39.39 L339.90,-39.90 L340.40,-40.40 L340.90,-40.90 L341.40,-41.40 L341.90,-41.90 L342.40,-42.40 L342.90,-42.90 L343.40,-43.40 L343.90,-43.90 L344.40,-44.40 L344.90,-44.90 L345.40,-45.40 L345.90,-45.90 L346.40,-46.40 L346.90,-46.90 L347.40,-47.40 L347.90,-47.90 L348.41,-48.41 L348.91,-48.91 L349.41,-49.41 L349.91,-49.91 L350.41,-50.41 L350.91,-50.91 L351.41,-51.41 L351.91,-51.91 L352.41,-52.41 L352.91,-52.91 L353.41,-53.41 L353.91,-53.91 L354.41,-54.41 L354.91,-54.91 L355.41,-55.41 L355.91,-55.91 L356.41,-56.41 L356.92,-56.92 L357.42,-57.42 L357.92,-57.92 L358.42,-58.42 L358.92,-58.92 L359.42,-59.42 L359.92,-59.92 L360.42,-60.42 L360.92,-60.92 L361.42,-61.42 L361.92,-61.92 L362.42,-62.42 L362.92,-62.92 L363.42,-63.42 L363.92,-63.92 L364.42,-64.42 L364.92,-64.92 L365.42,-65.42 L365.93,-65.93 L366.43,-66.43 L366.93,-66.93 L367.43,-67.43 L367.93,-67.93 L368.43,-68.43 L368.93,-68.93 L369.43,-69.43 L369.93,-69.93 L370.43,-70.43 L370.93,-70.93 L371.43,-71.43 L371.93,-71.93 L372.43,-72.43 L372.93,-72.93 L373.43,-73.43 L373.93,-73.93 L374.44,-74.44 L374.94,-74.94 L375.44,-75.44 L375.94,-75.94 L376.44,-76.44 L376.94,-76.94 L377.44,-77.44 L377.94,-77.94 L378.44,-78.44 L378.94,-78.94 L379.44,-79.44 L379.94,-79.94 L380.44,-80.44 L380.94,-80.94 L381.44,-81.44 L381.94,-81.94 L382.44,-82.44 L382.95,-82.95 L383.45,-83.45 L383.95,-83.95 L384.45,-84.45 L384.95,-84.95 L385.45,-85.45 L385.95,-85.95 L386.45,-86.45 L386.95,-86.95 L387.45,-87.45 L387.95,-87.95 L388.45,-88.45 L388.95,-88.95 L389.45,-89.45 L389.95,-89.95 L390.45,-90.45 L390.95,-90.95 L391.46,-91.46 L391.96,-91.96 L392.46,-92.46 L392.96,-92.96 L393.46,-93.46 L393.96,-93.96 L394.46,-94.46 L394.96,-94.96 L395.46,-95.46 L395.96,-95.96 L396.46,-96.46 L396.96,-96.96 L397.46,-97.46 L397.96,-97.96 L398.46,-98.46 L398.96,-98.96 L399.46,-99.46 L399.97,-99.97 L400.47,-100.47 L400.97,-100.97 L401.47,-101.47 L401.97,-101.97 L402.47,-102.47 L402.97,-102.97 L403.47,-103.47 L403.97,-103.97 L404.47,-104.47 L404.97,-104.97 L405.47,-105.47 L405.97,-105.97 L406.47,-106.47 L406.97,-106.97 L407.47,-107.47 L407.97,-107.97 L408.47,-108.47 L408.98,-108.98 L409.48,-109.48 L409.98,-109.98 L410.48,-110.48 L410.98,-110.98 L411.48,-111.48 L411.98,-111.98 L412.48,-112.48 L412.98,-112.98 L413.48,-113.48 L413.98,-113.98 L414.48,-114.48 L414.98,-114.98 L415.48,-115.48 L415.98,-115.98 L416.48,-116.48 L416.98,-116.98 L417.49,-117.49 L417.99,-117.99 L418.49,-118.49 L418.99,-118.99 L419.49,-119.49 L419.99,-119.99 L420.49,-120.49 L420.99,-120.99 L421.49,-121.49 L421.99,-121.99 L422.49,-122.49 L422.99,-122.99 L423.49,-123.49 L423.99,-123.99 L424.49,-124.49 L424.99,-124.99 L425.49,-125.49 L426.00,-126.00 L426.50,-126.50 L427.00,-127.00 L427.50,-127.50 L428.00,-128.00 L428.50,-128.50 L429.00,-129.00 L429.50,-129.50 L430.00,-130.00" style="stroke-width: 2; stroke: rgb(74, 144, 226); stroke-opacity: 0.8;"/></g></g><g class="test-xtl" style="font-family: &quot;Open Sans&quot;, verdana, arial, sans-serif;"><text text-anchor="middle" font-size="11" dominant-baseline="hanging" stroke="none" fill="rgb(50,50,50)" fill-opacity="1" x="66.865" y="107">-10</text><text text-anchor="middle" font-size="11" dominant-baseline="hanging" stroke="none" fill="rgb(50,50,50)" fill-opacity="1" x="330" y="107">10</text><text text-anchor="middle" font-size="11" dominant-baseline="hanging" stroke="none" fill="rgb(50,50,50)" fill-opacity="1" x="192" y="105">0</text></g><g class="test-ytl" style="font-family: &quot;Open Sans&quot;, verdana, arial, sans-serif;"/><rect class="real" x="1" y="1" width="428" height="198" style="fill: transparent; stroke: none;"/></g></g></g><g/></g><g/><g/><g/></svg>
        <svg xmlns="http://www.w3.org/2000/svg" xmlns:xlink="http://www.w3.org/1999/xlink" width="660" height="300" style="width:660px;height:300px;font-family:Asana-Math, Asana;background:transparent;"></svg>
</svg>
