<svg xmlns="http://www.w3.org/2000/svg" xmlns:xlink="http://www.w3.org/1999/xlink" x="0" y="0" width="701.6000366210938" height="301.6000061035156" style="
        width:701.6000366210938px;
        height:301.6000061035156px;
        background: transparent;
        fill: none;
">
        
        
        <svg xmlns="http://www.w3.org/2000/svg" class="role-diagram-draw-area" style="overflow: visible;"><g class="shapes-region" style="stroke: black; fill: none;"><g class="composite-shape"><path class="real" d=" M269,208 L339,208 L339,248 L269,248 Z" style="stroke-width: 1; stroke: none; fill: rgb(42, 31, 88); fill-opacity: 1; stroke-opacity: 1;"/></g><g class="composite-shape axis2d" style="stroke-width: 1; stroke: rgb(0, 0, 0);"><path class="real" d=" M145,248.2 L608.4,248.2 M191.34,37.6 L191.34,271.6"/><path d=" M601.4,243.2 L608.4,248.2 L601.4,253.2"/><path d=" M186.34,44.6 L191.34,37.6 L196.34,44.6"/><path d=" M303.34,243.2 L303.34,253.2 M415.34,243.2 L415.34,253.2 M527.34,243.2 L527.34,253.2 M186.34,136.2 L196.34,136.2"/><g style="fill: rgb(0, 0, 0); fill-opacity: 1; font-size: 11px; font-weight: normal; text-anchor: end; stroke: none; font-family: Times;"><text x="306.3399963378906" y="263.1999908447266">1</text><text x="418.3399963378906" y="263.1999908447266">2</text><text x="530.3399963378906" y="263.1999908447266">3</text><text x="184.33999633789062" y="139.19999084472659">1</text></g></g><g class="composite-shape"><path class="real" d=" M269,189.5 L339,189.5 L339,208 L269,208 Z" style="stroke-width: 1; stroke: none; stroke-opacity: 1; fill: rgb(74, 144, 226); fill-opacity: 1;"/></g><g class="composite-shape"><path class="real" d=" M381,208 L451,208 L451,248 L381,248 Z" style="stroke-width: 1; stroke: none; stroke-opacity: 1; fill: rgb(42, 31, 88); fill-opacity: 1;"/></g><g class="composite-shape"><path class="real" d=" M492,208 L562,208 L562,248 L492,248 Z" style="stroke-width: 1; stroke: none; stroke-opacity: 1; fill: rgb(42, 31, 88); fill-opacity: 1;"/></g><g class="composite-shape"><path class="real" d=" M269,86.5 L339,86.5 L339,189.5 L269,189.5 Z" style="stroke-width: 1; stroke: none; stroke-opacity: 1; fill: rgb(255, 221, 0); fill-opacity: 1;"/></g><g class="composite-shape"><path class="real" d=" M492,200.5 L562,200.5 L562,208 L492,208 Z" style="stroke-width: 1; stroke: none; stroke-opacity: 1; fill: rgb(74, 144, 226); fill-opacity: 1;"/></g><g class="composite-shape"><path class="real" d=" M492,165.5 L562,165.5 L562,200.5 L492,200.5 Z" style="stroke-width: 1; stroke: none; stroke-opacity: 1; fill: rgb(255, 221, 0); fill-opacity: 1;"/></g><g class="composite-shape"><path class="real" d=" M492,158 L562,158 L562,165.5 L492,165.5 Z" style="stroke-width: 1; stroke: none; stroke-opacity: 1; fill: rgb(74, 144, 226); fill-opacity: 1;"/></g><g class="composite-shape"><path class="real" d=" M492,123 L562,123 L562,158 L492,158 Z" style="stroke-width: 1; stroke: none; stroke-opacity: 1; fill: rgb(255, 221, 0); fill-opacity: 1;"/></g><g class="composite-shape"><path class="real" d=" M492,115.5 L562,115.5 L562,123 L492,123 Z" style="stroke-width: 1; stroke: none; stroke-opacity: 1; fill: rgb(74, 144, 226); fill-opacity: 1;"/></g><g class="composite-shape"><path class="real" d=" M492,80.5 L562,80.5 L562,115.5 L492,115.5 Z" style="stroke-width: 1; stroke: none; stroke-opacity: 1; fill: rgb(255, 221, 0); fill-opacity: 1;"/></g><g class="arrow-line"><path class="connection real" stroke-dasharray="" d="  M582,115.5 L564,115.5" style="stroke: rgb(0, 0, 0); stroke-width: 1; fill: none; fill-opacity: 1;"/><g stroke="#000" transform="matrix(1,-2.4492935982947064e-16,2.4492935982947064e-16,1,562,115.5)" style="stroke: rgb(0, 0, 0); stroke-width: 1;"><path d=" M10.93,-3.29 Q4.96,-0.45 0,0 Q4.96,0.45 10.93,3.29"/></g></g><g class="arrow-line"><path class="connection real" stroke-dasharray="" d="  M582,158 L564,158" style="stroke: rgb(0, 0, 0); stroke-width: 1; fill: none; fill-opacity: 1;"/><g stroke="#000" transform="matrix(1,-2.4492935982947064e-16,2.4492935982947064e-16,1,562,158)" style="stroke: rgb(0, 0, 0); stroke-width: 1;"><path d=" M10.93,-3.29 Q4.96,-0.45 0,0 Q4.96,0.45 10.93,3.29"/></g></g><g class="arrow-line"><path class="connection real" stroke-dasharray="" d="  M582,200.5 L564,200.5" style="stroke: rgb(0, 0, 0); stroke-width: 1; fill: none; fill-opacity: 1;"/><g stroke="#000" transform="matrix(1,-2.4492935982947064e-16,2.4492935982947064e-16,1,562,200.5)" style="stroke: rgb(0, 0, 0); stroke-width: 1;"><path d=" M10.93,-3.29 Q4.96,-0.45 0,0 Q4.96,0.45 10.93,3.29"/></g></g><g class="arrow-line"><path class="connection real" stroke-dasharray="" d="  M359,189.5 L341,189.5" style="stroke: rgb(0, 0, 0); stroke-width: 1; fill: none; fill-opacity: 1;"/><g stroke="#000" transform="matrix(1,-2.4492935982947064e-16,2.4492935982947064e-16,1,339,189.5)" style="stroke: rgb(0, 0, 0); stroke-width: 1;"><path d=" M10.93,-3.29 Q4.96,-0.45 0,0 Q4.96,0.45 10.93,3.29"/></g></g><g class="composite-shape"><path class="real" d=" M93,61.5 L107,61.5 L107,69.5 L93,69.5 Z" style="stroke-width: 1; stroke: none; stroke-opacity: 1; fill: rgb(42, 31, 88); fill-opacity: 1;"/></g><g class="composite-shape"><path class="real" d=" M93,77.5 L107,77.5 L107,85.5 L93,85.5 Z" style="stroke-width: 1; stroke: none; stroke-opacity: 1; fill: rgb(74, 144, 226); fill-opacity: 1;"/></g><g class="composite-shape"><path class="real" d=" M93,92.5 L107,92.5 L107,100.5 L93,100.5 Z" style="stroke-width: 1; stroke: none; stroke-opacity: 1; fill: rgb(255, 221, 0); fill-opacity: 1;"/></g><g/></g><g/><g/><g/></svg>
        <svg xmlns="http://www.w3.org/2000/svg" xmlns:xlink="http://www.w3.org/1999/xlink" width="700" height="300" style="width:700px;height:300px;font-family:Asana-Math, Asana;background:transparent;"><g><g><g><text x="253.59371948242188" y="47.800018310546875" style="white-space:pre;stroke:none;fill:rgb(0,0,0);fill-opacity:1;font-size:12px;font-family:Arial, Helvetica, sans-serif;font-weight:400;font-style:normal;dominant-baseline:text-before-edge;text-decoration:none solid rgb(0, 0, 0);">Gasto en una sola </text></g></g><g><g><text x="275.6062316894531" y="64.60000610351562" style="white-space:pre;stroke:none;fill:rgb(0,0,0);fill-opacity:1;font-size:12px;font-family:Arial, Helvetica, sans-serif;font-weight:400;font-style:normal;dominant-baseline:text-before-edge;text-decoration:none solid rgb(0, 0, 0);">exposición</text></g></g></g><g><g><g><text x="482.9250183105469" y="44.800018310546875" style="white-space:pre;stroke:none;fill:rgb(0,0,0);fill-opacity:1;font-size:12px;font-family:Arial, Helvetica, sans-serif;font-weight:400;font-style:normal;dominant-baseline:text-before-edge;text-decoration:none solid rgb(0, 0, 0);">Gasto en varias </text></g></g><g><g><text x="491.9250183105469" y="61.600006103515625" style="white-space:pre;stroke:none;fill:rgb(0,0,0);fill-opacity:1;font-size:12px;font-family:Arial, Helvetica, sans-serif;font-weight:400;font-style:normal;dominant-baseline:text-before-edge;text-decoration:none solid rgb(0, 0, 0);">exposiciones</text></g></g></g><g><g><g><text x="360.8000183105469" y="172.39999389648438" style="white-space:pre;stroke:none;fill:rgb(0,0,0);fill-opacity:1;font-size:12px;font-family:Arial, Helvetica, sans-serif;font-weight:400;font-style:normal;dominant-baseline:text-before-edge;text-decoration:none solid rgb(0, 0, 0);">El gasto no rebasa el </text></g></g><g><g><text x="393.1499938964844" y="189.20001220703125" style="white-space:pre;stroke:none;fill:rgb(0,0,0);fill-opacity:1;font-size:12px;font-family:Arial, Helvetica, sans-serif;font-weight:400;font-style:normal;dominant-baseline:text-before-edge;text-decoration:none solid rgb(0, 0, 0);">deducible</text></g></g></g><g><g><g><text x="111.80001831054688" y="58.399993896484375" style="white-space:pre;stroke:none;fill:rgb(0,0,0);fill-opacity:1;font-size:12px;font-family:Arial, Helvetica, sans-serif;font-weight:400;font-style:normal;dominant-baseline:text-before-edge;text-decoration:none solid rgb(0, 0, 0);">Deducible</text></g></g></g><g><g><g><text x="111.80001831054688" y="73.89999389648438" style="white-space:pre;stroke:none;fill:rgb(0,0,0);fill-opacity:1;font-size:12px;font-family:Arial, Helvetica, sans-serif;font-weight:400;font-style:normal;dominant-baseline:text-before-edge;text-decoration:none solid rgb(0, 0, 0);">Coaseguro</text></g></g></g><g><g><g><text x="110.80001831054688" y="88.89999389648438" style="white-space:pre;stroke:none;fill:rgb(0,0,0);fill-opacity:1;font-size:12px;font-family:Arial, Helvetica, sans-serif;font-weight:400;font-style:normal;dominant-baseline:text-before-edge;text-decoration:none solid rgb(0, 0, 0);">Aseguradora</text></g></g></g></svg>
</svg>
